M48
; DRILL file {KiCad 7.0.6} date Fri Aug  4 12:55:15 2023
; FORMAT={-:-/ absolute / metric / decimal}
; #@! TF.CreationDate,2023-08-04T12:55:15+05:30
; #@! TF.GenerationSoftware,Kicad,Pcbnew,7.0.6
; #@! TF.FileFunction,Plated,1,2,PTH
FMAT,2
METRIC
; #@! TA.AperFunction,Plated,PTH,ViaDrill
T1C0.300
; #@! TA.AperFunction,Plated,PTH,ViaDrill
T2C0.400
; #@! TA.AperFunction,Plated,PTH,ComponentDrill
T3C1.000
%
G90
G05
T1
X131.05Y-69.25
X131.85Y-69.95
X135.05Y-64.25
T2
X136.0Y-67.95
X136.162Y-73.7
X137.476Y-71.724
T3
X127.9Y-60.13
X127.9Y-62.67
X127.9Y-65.21
X127.9Y-67.75
X127.9Y-70.29
X127.9Y-72.83
X127.9Y-75.37
X143.075Y-60.13
X143.075Y-62.67
X143.075Y-65.21
X143.075Y-67.75
X143.075Y-70.29
X143.075Y-72.83
X143.075Y-75.37
T0
M30
