%TF.GenerationSoftware,KiCad,Pcbnew,7.0.6*%
%TF.CreationDate,2023-08-04T12:55:21+05:30*%
%TF.ProjectId,XIAO ESP32S3 IMU,5849414f-2045-4535-9033-32533320494d,rev?*%
%TF.SameCoordinates,Original*%
%TF.FileFunction,Soldermask,Top*%
%TF.FilePolarity,Negative*%
%FSLAX46Y46*%
G04 Gerber Fmt 4.6, Leading zero omitted, Abs format (unit mm)*
G04 Created by KiCad (PCBNEW 7.0.6) date 2023-08-04 12:55:21*
%MOMM*%
%LPD*%
G01*
G04 APERTURE LIST*
G04 Aperture macros list*
%AMRoundRect*
0 Rectangle with rounded corners*
0 $1 Rounding radius*
0 $2 $3 $4 $5 $6 $7 $8 $9 X,Y pos of 4 corners*
0 Add a 4 corners polygon primitive as box body*
4,1,4,$2,$3,$4,$5,$6,$7,$8,$9,$2,$3,0*
0 Add four circle primitives for the rounded corners*
1,1,$1+$1,$2,$3*
1,1,$1+$1,$4,$5*
1,1,$1+$1,$6,$7*
1,1,$1+$1,$8,$9*
0 Add four rect primitives between the rounded corners*
20,1,$1+$1,$2,$3,$4,$5,0*
20,1,$1+$1,$4,$5,$6,$7,0*
20,1,$1+$1,$6,$7,$8,$9,0*
20,1,$1+$1,$8,$9,$2,$3,0*%
G04 Aperture macros list end*
%ADD10R,1.700000X1.700000*%
%ADD11O,1.700000X1.700000*%
%ADD12RoundRect,0.237500X-0.237500X0.300000X-0.237500X-0.300000X0.237500X-0.300000X0.237500X0.300000X0*%
%ADD13RoundRect,0.050000X0.050000X-0.225000X0.050000X0.225000X-0.050000X0.225000X-0.050000X-0.225000X0*%
%ADD14RoundRect,0.050000X0.225000X0.050000X-0.225000X0.050000X-0.225000X-0.050000X0.225000X-0.050000X0*%
%ADD15RoundRect,0.237500X0.237500X-0.300000X0.237500X0.300000X-0.237500X0.300000X-0.237500X-0.300000X0*%
%ADD16RoundRect,0.237500X-0.237500X0.250000X-0.237500X-0.250000X0.237500X-0.250000X0.237500X0.250000X0*%
%ADD17RoundRect,0.237500X0.250000X0.237500X-0.250000X0.237500X-0.250000X-0.237500X0.250000X-0.237500X0*%
G04 APERTURE END LIST*
D10*
%TO.C,J2*%
X143075000Y-60130000D03*
D11*
X143075000Y-62670000D03*
X143075000Y-65210000D03*
X143075000Y-67750000D03*
X143075000Y-70290000D03*
X143075000Y-72830000D03*
X143075000Y-75370000D03*
%TD*%
D12*
%TO.C,C2*%
X137800000Y-73037500D03*
X137800000Y-74762500D03*
%TD*%
D13*
%TO.C,U2*%
X133250000Y-72450000D03*
X133650000Y-72450000D03*
X134050000Y-72450000D03*
X134450000Y-72450000D03*
X134850000Y-72450000D03*
X135250000Y-72450000D03*
D14*
X135750000Y-71950000D03*
X135750000Y-71550000D03*
X135750000Y-71150000D03*
X135750000Y-70750000D03*
X135750000Y-70350000D03*
X135750000Y-69950000D03*
D13*
X135250000Y-69450000D03*
X134850000Y-69450000D03*
X134450000Y-69450000D03*
X134050000Y-69450000D03*
X133650000Y-69450000D03*
X133250000Y-69450000D03*
D14*
X132750000Y-69950000D03*
X132750000Y-70350000D03*
X132750000Y-70750000D03*
X132750000Y-71150000D03*
X132750000Y-71550000D03*
X132750000Y-71950000D03*
%TD*%
D15*
%TO.C,C3*%
X134550000Y-67662500D03*
X134550000Y-65937500D03*
%TD*%
D16*
%TO.C,R1*%
X130450000Y-64537500D03*
X130450000Y-66362500D03*
%TD*%
D10*
%TO.C,J1*%
X127900000Y-60130000D03*
D11*
X127900000Y-62670000D03*
X127900000Y-65210000D03*
X127900000Y-67750000D03*
X127900000Y-70290000D03*
X127900000Y-72830000D03*
X127900000Y-75370000D03*
%TD*%
D17*
%TO.C,R2*%
X132812500Y-76350000D03*
X130987500Y-76350000D03*
%TD*%
D15*
%TO.C,C1*%
X138300000Y-70462500D03*
X138300000Y-68737500D03*
%TD*%
M02*
