%TF.GenerationSoftware,KiCad,Pcbnew,7.0.6*%
%TF.CreationDate,2023-08-04T12:55:21+05:30*%
%TF.ProjectId,XIAO ESP32S3 IMU,5849414f-2045-4535-9033-32533320494d,rev?*%
%TF.SameCoordinates,Original*%
%TF.FileFunction,Legend,Top*%
%TF.FilePolarity,Positive*%
%FSLAX46Y46*%
G04 Gerber Fmt 4.6, Leading zero omitted, Abs format (unit mm)*
G04 Created by KiCad (PCBNEW 7.0.6) date 2023-08-04 12:55:21*
%MOMM*%
%LPD*%
G01*
G04 APERTURE LIST*
%ADD10C,0.150000*%
%ADD11C,0.120000*%
G04 APERTURE END LIST*
D10*
X133120711Y-73150000D02*
G75*
G03*
X133120711Y-73150000I-70711J0D01*
G01*
X140753990Y-68705826D02*
X140753990Y-68439160D01*
X140230180Y-68439160D02*
X141230180Y-68439160D01*
X141230180Y-68439160D02*
X141230180Y-68820112D01*
X140277800Y-69086778D02*
X140230180Y-69201064D01*
X140230180Y-69201064D02*
X140230180Y-69391540D01*
X140230180Y-69391540D02*
X140277800Y-69467731D01*
X140277800Y-69467731D02*
X140325419Y-69505826D01*
X140325419Y-69505826D02*
X140420657Y-69543921D01*
X140420657Y-69543921D02*
X140515895Y-69543921D01*
X140515895Y-69543921D02*
X140611133Y-69505826D01*
X140611133Y-69505826D02*
X140658752Y-69467731D01*
X140658752Y-69467731D02*
X140706371Y-69391540D01*
X140706371Y-69391540D02*
X140753990Y-69239159D01*
X140753990Y-69239159D02*
X140801609Y-69162969D01*
X140801609Y-69162969D02*
X140849228Y-69124874D01*
X140849228Y-69124874D02*
X140944466Y-69086778D01*
X140944466Y-69086778D02*
X141039704Y-69086778D01*
X141039704Y-69086778D02*
X141134942Y-69124874D01*
X141134942Y-69124874D02*
X141182561Y-69162969D01*
X141182561Y-69162969D02*
X141230180Y-69239159D01*
X141230180Y-69239159D02*
X141230180Y-69429636D01*
X141230180Y-69429636D02*
X141182561Y-69543921D01*
X140706371Y-70039160D02*
X140230180Y-70039160D01*
X141230180Y-69772493D02*
X140706371Y-70039160D01*
X140706371Y-70039160D02*
X141230180Y-70305826D01*
X140230180Y-70572493D02*
X141230180Y-70572493D01*
X141230180Y-70572493D02*
X140230180Y-71029636D01*
X140230180Y-71029636D02*
X141230180Y-71029636D01*
X140325419Y-71867731D02*
X140277800Y-71829635D01*
X140277800Y-71829635D02*
X140230180Y-71715350D01*
X140230180Y-71715350D02*
X140230180Y-71639159D01*
X140230180Y-71639159D02*
X140277800Y-71524873D01*
X140277800Y-71524873D02*
X140373038Y-71448683D01*
X140373038Y-71448683D02*
X140468276Y-71410588D01*
X140468276Y-71410588D02*
X140658752Y-71372492D01*
X140658752Y-71372492D02*
X140801609Y-71372492D01*
X140801609Y-71372492D02*
X140992085Y-71410588D01*
X140992085Y-71410588D02*
X141087323Y-71448683D01*
X141087323Y-71448683D02*
X141182561Y-71524873D01*
X141182561Y-71524873D02*
X141230180Y-71639159D01*
X141230180Y-71639159D02*
X141230180Y-71715350D01*
X141230180Y-71715350D02*
X141182561Y-71829635D01*
X141182561Y-71829635D02*
X141134942Y-71867731D01*
X130672200Y-73948935D02*
X130719819Y-73834649D01*
X130719819Y-73834649D02*
X130719819Y-73644173D01*
X130719819Y-73644173D02*
X130672200Y-73567982D01*
X130672200Y-73567982D02*
X130624580Y-73529887D01*
X130624580Y-73529887D02*
X130529342Y-73491792D01*
X130529342Y-73491792D02*
X130434104Y-73491792D01*
X130434104Y-73491792D02*
X130338866Y-73529887D01*
X130338866Y-73529887D02*
X130291247Y-73567982D01*
X130291247Y-73567982D02*
X130243628Y-73644173D01*
X130243628Y-73644173D02*
X130196009Y-73796554D01*
X130196009Y-73796554D02*
X130148390Y-73872744D01*
X130148390Y-73872744D02*
X130100771Y-73910839D01*
X130100771Y-73910839D02*
X130005533Y-73948935D01*
X130005533Y-73948935D02*
X129910295Y-73948935D01*
X129910295Y-73948935D02*
X129815057Y-73910839D01*
X129815057Y-73910839D02*
X129767438Y-73872744D01*
X129767438Y-73872744D02*
X129719819Y-73796554D01*
X129719819Y-73796554D02*
X129719819Y-73606077D01*
X129719819Y-73606077D02*
X129767438Y-73491792D01*
X130624580Y-72691791D02*
X130672200Y-72729887D01*
X130672200Y-72729887D02*
X130719819Y-72844172D01*
X130719819Y-72844172D02*
X130719819Y-72920363D01*
X130719819Y-72920363D02*
X130672200Y-73034649D01*
X130672200Y-73034649D02*
X130576961Y-73110839D01*
X130576961Y-73110839D02*
X130481723Y-73148934D01*
X130481723Y-73148934D02*
X130291247Y-73187030D01*
X130291247Y-73187030D02*
X130148390Y-73187030D01*
X130148390Y-73187030D02*
X129957914Y-73148934D01*
X129957914Y-73148934D02*
X129862676Y-73110839D01*
X129862676Y-73110839D02*
X129767438Y-73034649D01*
X129767438Y-73034649D02*
X129719819Y-72920363D01*
X129719819Y-72920363D02*
X129719819Y-72844172D01*
X129719819Y-72844172D02*
X129767438Y-72729887D01*
X129767438Y-72729887D02*
X129815057Y-72691791D01*
X130719819Y-71967982D02*
X130719819Y-72348934D01*
X130719819Y-72348934D02*
X129719819Y-72348934D01*
X140932561Y-62008207D02*
X140980180Y-61932017D01*
X140980180Y-61932017D02*
X140980180Y-61817731D01*
X140980180Y-61817731D02*
X140932561Y-61703445D01*
X140932561Y-61703445D02*
X140837323Y-61627255D01*
X140837323Y-61627255D02*
X140742085Y-61589160D01*
X140742085Y-61589160D02*
X140551609Y-61551064D01*
X140551609Y-61551064D02*
X140408752Y-61551064D01*
X140408752Y-61551064D02*
X140218276Y-61589160D01*
X140218276Y-61589160D02*
X140123038Y-61627255D01*
X140123038Y-61627255D02*
X140027800Y-61703445D01*
X140027800Y-61703445D02*
X139980180Y-61817731D01*
X139980180Y-61817731D02*
X139980180Y-61893922D01*
X139980180Y-61893922D02*
X140027800Y-62008207D01*
X140027800Y-62008207D02*
X140075419Y-62046303D01*
X140075419Y-62046303D02*
X140408752Y-62046303D01*
X140408752Y-62046303D02*
X140408752Y-61893922D01*
X139980180Y-62389160D02*
X140980180Y-62389160D01*
X140980180Y-62389160D02*
X139980180Y-62846303D01*
X139980180Y-62846303D02*
X140980180Y-62846303D01*
X139980180Y-63227255D02*
X140980180Y-63227255D01*
X140980180Y-63227255D02*
X140980180Y-63417731D01*
X140980180Y-63417731D02*
X140932561Y-63532017D01*
X140932561Y-63532017D02*
X140837323Y-63608207D01*
X140837323Y-63608207D02*
X140742085Y-63646302D01*
X140742085Y-63646302D02*
X140551609Y-63684398D01*
X140551609Y-63684398D02*
X140408752Y-63684398D01*
X140408752Y-63684398D02*
X140218276Y-63646302D01*
X140218276Y-63646302D02*
X140123038Y-63608207D01*
X140123038Y-63608207D02*
X140027800Y-63532017D01*
X140027800Y-63532017D02*
X139980180Y-63417731D01*
X139980180Y-63417731D02*
X139980180Y-63227255D01*
X130672200Y-71098935D02*
X130719819Y-70984649D01*
X130719819Y-70984649D02*
X130719819Y-70794173D01*
X130719819Y-70794173D02*
X130672200Y-70717982D01*
X130672200Y-70717982D02*
X130624580Y-70679887D01*
X130624580Y-70679887D02*
X130529342Y-70641792D01*
X130529342Y-70641792D02*
X130434104Y-70641792D01*
X130434104Y-70641792D02*
X130338866Y-70679887D01*
X130338866Y-70679887D02*
X130291247Y-70717982D01*
X130291247Y-70717982D02*
X130243628Y-70794173D01*
X130243628Y-70794173D02*
X130196009Y-70946554D01*
X130196009Y-70946554D02*
X130148390Y-71022744D01*
X130148390Y-71022744D02*
X130100771Y-71060839D01*
X130100771Y-71060839D02*
X130005533Y-71098935D01*
X130005533Y-71098935D02*
X129910295Y-71098935D01*
X129910295Y-71098935D02*
X129815057Y-71060839D01*
X129815057Y-71060839D02*
X129767438Y-71022744D01*
X129767438Y-71022744D02*
X129719819Y-70946554D01*
X129719819Y-70946554D02*
X129719819Y-70756077D01*
X129719819Y-70756077D02*
X129767438Y-70641792D01*
X130719819Y-70298934D02*
X129719819Y-70298934D01*
X129719819Y-70298934D02*
X129719819Y-70108458D01*
X129719819Y-70108458D02*
X129767438Y-69994172D01*
X129767438Y-69994172D02*
X129862676Y-69917982D01*
X129862676Y-69917982D02*
X129957914Y-69879887D01*
X129957914Y-69879887D02*
X130148390Y-69841791D01*
X130148390Y-69841791D02*
X130291247Y-69841791D01*
X130291247Y-69841791D02*
X130481723Y-69879887D01*
X130481723Y-69879887D02*
X130576961Y-69917982D01*
X130576961Y-69917982D02*
X130672200Y-69994172D01*
X130672200Y-69994172D02*
X130719819Y-70108458D01*
X130719819Y-70108458D02*
X130719819Y-70298934D01*
X130434104Y-69537030D02*
X130434104Y-69156077D01*
X130719819Y-69613220D02*
X129719819Y-69346553D01*
X129719819Y-69346553D02*
X130719819Y-69079887D01*
X141030180Y-64462969D02*
X141030180Y-64958207D01*
X141030180Y-64958207D02*
X140649228Y-64691541D01*
X140649228Y-64691541D02*
X140649228Y-64805826D01*
X140649228Y-64805826D02*
X140601609Y-64882017D01*
X140601609Y-64882017D02*
X140553990Y-64920112D01*
X140553990Y-64920112D02*
X140458752Y-64958207D01*
X140458752Y-64958207D02*
X140220657Y-64958207D01*
X140220657Y-64958207D02*
X140125419Y-64920112D01*
X140125419Y-64920112D02*
X140077800Y-64882017D01*
X140077800Y-64882017D02*
X140030180Y-64805826D01*
X140030180Y-64805826D02*
X140030180Y-64577255D01*
X140030180Y-64577255D02*
X140077800Y-64501064D01*
X140077800Y-64501064D02*
X140125419Y-64462969D01*
X141030180Y-65186779D02*
X140030180Y-65453446D01*
X140030180Y-65453446D02*
X141030180Y-65720112D01*
X141030180Y-65910588D02*
X141030180Y-66405826D01*
X141030180Y-66405826D02*
X140649228Y-66139160D01*
X140649228Y-66139160D02*
X140649228Y-66253445D01*
X140649228Y-66253445D02*
X140601609Y-66329636D01*
X140601609Y-66329636D02*
X140553990Y-66367731D01*
X140553990Y-66367731D02*
X140458752Y-66405826D01*
X140458752Y-66405826D02*
X140220657Y-66405826D01*
X140220657Y-66405826D02*
X140125419Y-66367731D01*
X140125419Y-66367731D02*
X140077800Y-66329636D01*
X140077800Y-66329636D02*
X140030180Y-66253445D01*
X140030180Y-66253445D02*
X140030180Y-66024874D01*
X140030180Y-66024874D02*
X140077800Y-65948683D01*
X140077800Y-65948683D02*
X140125419Y-65910588D01*
X131219819Y-61013220D02*
X130219819Y-61013220D01*
X131219819Y-60537030D02*
X130219819Y-60537030D01*
X130219819Y-60537030D02*
X131219819Y-59965602D01*
X131219819Y-59965602D02*
X130219819Y-59965602D01*
X130219819Y-59632268D02*
X130219819Y-59060840D01*
X131219819Y-59346554D02*
X130219819Y-59346554D01*
X140204819Y-59633333D02*
X140919104Y-59633333D01*
X140919104Y-59633333D02*
X141061961Y-59680952D01*
X141061961Y-59680952D02*
X141157200Y-59776190D01*
X141157200Y-59776190D02*
X141204819Y-59919047D01*
X141204819Y-59919047D02*
X141204819Y-60014285D01*
X140300057Y-59204761D02*
X140252438Y-59157142D01*
X140252438Y-59157142D02*
X140204819Y-59061904D01*
X140204819Y-59061904D02*
X140204819Y-58823809D01*
X140204819Y-58823809D02*
X140252438Y-58728571D01*
X140252438Y-58728571D02*
X140300057Y-58680952D01*
X140300057Y-58680952D02*
X140395295Y-58633333D01*
X140395295Y-58633333D02*
X140490533Y-58633333D01*
X140490533Y-58633333D02*
X140633390Y-58680952D01*
X140633390Y-58680952D02*
X141204819Y-59252380D01*
X141204819Y-59252380D02*
X141204819Y-58633333D01*
X137633333Y-76859580D02*
X137585714Y-76907200D01*
X137585714Y-76907200D02*
X137442857Y-76954819D01*
X137442857Y-76954819D02*
X137347619Y-76954819D01*
X137347619Y-76954819D02*
X137204762Y-76907200D01*
X137204762Y-76907200D02*
X137109524Y-76811961D01*
X137109524Y-76811961D02*
X137061905Y-76716723D01*
X137061905Y-76716723D02*
X137014286Y-76526247D01*
X137014286Y-76526247D02*
X137014286Y-76383390D01*
X137014286Y-76383390D02*
X137061905Y-76192914D01*
X137061905Y-76192914D02*
X137109524Y-76097676D01*
X137109524Y-76097676D02*
X137204762Y-76002438D01*
X137204762Y-76002438D02*
X137347619Y-75954819D01*
X137347619Y-75954819D02*
X137442857Y-75954819D01*
X137442857Y-75954819D02*
X137585714Y-76002438D01*
X137585714Y-76002438D02*
X137633333Y-76050057D01*
X138014286Y-76050057D02*
X138061905Y-76002438D01*
X138061905Y-76002438D02*
X138157143Y-75954819D01*
X138157143Y-75954819D02*
X138395238Y-75954819D01*
X138395238Y-75954819D02*
X138490476Y-76002438D01*
X138490476Y-76002438D02*
X138538095Y-76050057D01*
X138538095Y-76050057D02*
X138585714Y-76145295D01*
X138585714Y-76145295D02*
X138585714Y-76240533D01*
X138585714Y-76240533D02*
X138538095Y-76383390D01*
X138538095Y-76383390D02*
X137966667Y-76954819D01*
X137966667Y-76954819D02*
X138585714Y-76954819D01*
X133538095Y-73254819D02*
X133538095Y-74064342D01*
X133538095Y-74064342D02*
X133585714Y-74159580D01*
X133585714Y-74159580D02*
X133633333Y-74207200D01*
X133633333Y-74207200D02*
X133728571Y-74254819D01*
X133728571Y-74254819D02*
X133919047Y-74254819D01*
X133919047Y-74254819D02*
X134014285Y-74207200D01*
X134014285Y-74207200D02*
X134061904Y-74159580D01*
X134061904Y-74159580D02*
X134109523Y-74064342D01*
X134109523Y-74064342D02*
X134109523Y-73254819D01*
X134538095Y-73350057D02*
X134585714Y-73302438D01*
X134585714Y-73302438D02*
X134680952Y-73254819D01*
X134680952Y-73254819D02*
X134919047Y-73254819D01*
X134919047Y-73254819D02*
X135014285Y-73302438D01*
X135014285Y-73302438D02*
X135061904Y-73350057D01*
X135061904Y-73350057D02*
X135109523Y-73445295D01*
X135109523Y-73445295D02*
X135109523Y-73540533D01*
X135109523Y-73540533D02*
X135061904Y-73683390D01*
X135061904Y-73683390D02*
X134490476Y-74254819D01*
X134490476Y-74254819D02*
X135109523Y-74254819D01*
X136609580Y-66466666D02*
X136657200Y-66514285D01*
X136657200Y-66514285D02*
X136704819Y-66657142D01*
X136704819Y-66657142D02*
X136704819Y-66752380D01*
X136704819Y-66752380D02*
X136657200Y-66895237D01*
X136657200Y-66895237D02*
X136561961Y-66990475D01*
X136561961Y-66990475D02*
X136466723Y-67038094D01*
X136466723Y-67038094D02*
X136276247Y-67085713D01*
X136276247Y-67085713D02*
X136133390Y-67085713D01*
X136133390Y-67085713D02*
X135942914Y-67038094D01*
X135942914Y-67038094D02*
X135847676Y-66990475D01*
X135847676Y-66990475D02*
X135752438Y-66895237D01*
X135752438Y-66895237D02*
X135704819Y-66752380D01*
X135704819Y-66752380D02*
X135704819Y-66657142D01*
X135704819Y-66657142D02*
X135752438Y-66514285D01*
X135752438Y-66514285D02*
X135800057Y-66466666D01*
X135704819Y-66133332D02*
X135704819Y-65514285D01*
X135704819Y-65514285D02*
X136085771Y-65847618D01*
X136085771Y-65847618D02*
X136085771Y-65704761D01*
X136085771Y-65704761D02*
X136133390Y-65609523D01*
X136133390Y-65609523D02*
X136181009Y-65561904D01*
X136181009Y-65561904D02*
X136276247Y-65514285D01*
X136276247Y-65514285D02*
X136514342Y-65514285D01*
X136514342Y-65514285D02*
X136609580Y-65561904D01*
X136609580Y-65561904D02*
X136657200Y-65609523D01*
X136657200Y-65609523D02*
X136704819Y-65704761D01*
X136704819Y-65704761D02*
X136704819Y-65990475D01*
X136704819Y-65990475D02*
X136657200Y-66085713D01*
X136657200Y-66085713D02*
X136609580Y-66133332D01*
X132334819Y-65616666D02*
X131858628Y-65949999D01*
X132334819Y-66188094D02*
X131334819Y-66188094D01*
X131334819Y-66188094D02*
X131334819Y-65807142D01*
X131334819Y-65807142D02*
X131382438Y-65711904D01*
X131382438Y-65711904D02*
X131430057Y-65664285D01*
X131430057Y-65664285D02*
X131525295Y-65616666D01*
X131525295Y-65616666D02*
X131668152Y-65616666D01*
X131668152Y-65616666D02*
X131763390Y-65664285D01*
X131763390Y-65664285D02*
X131811009Y-65711904D01*
X131811009Y-65711904D02*
X131858628Y-65807142D01*
X131858628Y-65807142D02*
X131858628Y-66188094D01*
X132334819Y-64664285D02*
X132334819Y-65235713D01*
X132334819Y-64949999D02*
X131334819Y-64949999D01*
X131334819Y-64949999D02*
X131477676Y-65045237D01*
X131477676Y-65045237D02*
X131572914Y-65140475D01*
X131572914Y-65140475D02*
X131620533Y-65235713D01*
X130845180Y-62466666D02*
X130130895Y-62466666D01*
X130130895Y-62466666D02*
X129988038Y-62419047D01*
X129988038Y-62419047D02*
X129892800Y-62323809D01*
X129892800Y-62323809D02*
X129845180Y-62180952D01*
X129845180Y-62180952D02*
X129845180Y-62085714D01*
X129845180Y-63466666D02*
X129845180Y-62895238D01*
X129845180Y-63180952D02*
X130845180Y-63180952D01*
X130845180Y-63180952D02*
X130702323Y-63085714D01*
X130702323Y-63085714D02*
X130607085Y-62990476D01*
X130607085Y-62990476D02*
X130559466Y-62895238D01*
X134433333Y-77004819D02*
X134100000Y-76528628D01*
X133861905Y-77004819D02*
X133861905Y-76004819D01*
X133861905Y-76004819D02*
X134242857Y-76004819D01*
X134242857Y-76004819D02*
X134338095Y-76052438D01*
X134338095Y-76052438D02*
X134385714Y-76100057D01*
X134385714Y-76100057D02*
X134433333Y-76195295D01*
X134433333Y-76195295D02*
X134433333Y-76338152D01*
X134433333Y-76338152D02*
X134385714Y-76433390D01*
X134385714Y-76433390D02*
X134338095Y-76481009D01*
X134338095Y-76481009D02*
X134242857Y-76528628D01*
X134242857Y-76528628D02*
X133861905Y-76528628D01*
X134814286Y-76100057D02*
X134861905Y-76052438D01*
X134861905Y-76052438D02*
X134957143Y-76004819D01*
X134957143Y-76004819D02*
X135195238Y-76004819D01*
X135195238Y-76004819D02*
X135290476Y-76052438D01*
X135290476Y-76052438D02*
X135338095Y-76100057D01*
X135338095Y-76100057D02*
X135385714Y-76195295D01*
X135385714Y-76195295D02*
X135385714Y-76290533D01*
X135385714Y-76290533D02*
X135338095Y-76433390D01*
X135338095Y-76433390D02*
X134766667Y-77004819D01*
X134766667Y-77004819D02*
X135385714Y-77004819D01*
X138083333Y-67509580D02*
X138035714Y-67557200D01*
X138035714Y-67557200D02*
X137892857Y-67604819D01*
X137892857Y-67604819D02*
X137797619Y-67604819D01*
X137797619Y-67604819D02*
X137654762Y-67557200D01*
X137654762Y-67557200D02*
X137559524Y-67461961D01*
X137559524Y-67461961D02*
X137511905Y-67366723D01*
X137511905Y-67366723D02*
X137464286Y-67176247D01*
X137464286Y-67176247D02*
X137464286Y-67033390D01*
X137464286Y-67033390D02*
X137511905Y-66842914D01*
X137511905Y-66842914D02*
X137559524Y-66747676D01*
X137559524Y-66747676D02*
X137654762Y-66652438D01*
X137654762Y-66652438D02*
X137797619Y-66604819D01*
X137797619Y-66604819D02*
X137892857Y-66604819D01*
X137892857Y-66604819D02*
X138035714Y-66652438D01*
X138035714Y-66652438D02*
X138083333Y-66700057D01*
X139035714Y-67604819D02*
X138464286Y-67604819D01*
X138750000Y-67604819D02*
X138750000Y-66604819D01*
X138750000Y-66604819D02*
X138654762Y-66747676D01*
X138654762Y-66747676D02*
X138559524Y-66842914D01*
X138559524Y-66842914D02*
X138464286Y-66890533D01*
D11*
%TO.C,J2*%
X141745000Y-61400000D02*
X141745000Y-76700000D01*
X141745000Y-61400000D02*
X144405000Y-61400000D01*
X141745000Y-76700000D02*
X144405000Y-76700000D01*
X143075000Y-58800000D02*
X144405000Y-58800000D01*
X144405000Y-58800000D02*
X144405000Y-60130000D01*
X144405000Y-61400000D02*
X144405000Y-76700000D01*
%TO.C,C2*%
X138310000Y-73753733D02*
X138310000Y-74046267D01*
X137290000Y-73753733D02*
X137290000Y-74046267D01*
D10*
%TO.C,U2*%
X132650000Y-72550000D02*
X132650000Y-72150000D01*
X135850000Y-72550000D02*
X135450000Y-72550000D01*
X135850000Y-72550000D02*
X135850000Y-72150000D01*
X132650000Y-69350000D02*
X132650000Y-69750000D01*
X132650000Y-69350000D02*
X133050000Y-69350000D01*
X135850000Y-69350000D02*
X135850000Y-69750000D01*
X135850000Y-69350000D02*
X135450000Y-69350000D01*
D11*
%TO.C,C3*%
X134040000Y-66946267D02*
X134040000Y-66653733D01*
X135060000Y-66946267D02*
X135060000Y-66653733D01*
%TO.C,R1*%
X130972500Y-65195276D02*
X130972500Y-65704724D01*
X129927500Y-65195276D02*
X129927500Y-65704724D01*
%TO.C,J1*%
X126570000Y-61400000D02*
X126570000Y-76700000D01*
X126570000Y-61400000D02*
X129230000Y-61400000D01*
X126570000Y-76700000D02*
X129230000Y-76700000D01*
X127900000Y-58800000D02*
X129230000Y-58800000D01*
X129230000Y-58800000D02*
X129230000Y-60130000D01*
X129230000Y-61400000D02*
X129230000Y-76700000D01*
%TO.C,R2*%
X132154724Y-76872500D02*
X131645276Y-76872500D01*
X132154724Y-75827500D02*
X131645276Y-75827500D01*
%TO.C,C1*%
X137790000Y-69746267D02*
X137790000Y-69453733D01*
X138810000Y-69746267D02*
X138810000Y-69453733D01*
%TD*%
M02*
